<?xml version="1.0" encoding="UTF-8"?>
<!DOCTYPE svg PUBLIC "-//W3C//DTD SVG 1.1//EN" "http://www.w3.org/Graphics/SVG/1.1/DTD/svg11.dtd">
<!-- Creator: CorelDRAW 2020 (64-Bit) -->
<svg xmlns="http://www.w3.org/2000/svg" xml:space="preserve" width="68.6757mm" height="23.4869mm" version="1.1" style="shape-rendering:geometricPrecision; text-rendering:geometricPrecision; image-rendering:optimizeQuality; fill-rule:evenodd; clip-rule:evenodd"
viewBox="0 0 1618.29 553.45"
 xmlns:xlink="http://www.w3.org/1999/xlink"
 xmlns:xodm="http://www.corel.com/coreldraw/odm/2003">
 <defs>
  <style type="text/css">
   <![CDATA[
    .fil5 {fill:black}
    .fil9 {fill:#1C0C17}
    .fil15 {fill:#470000}
    .fil4 {fill:#5B0E06}
    .fil12 {fill:#8184CD}
    .fil10 {fill:#840000}
    .fil8 {fill:#A31D11}
    .fil14 {fill:#B15641}
    .fil16 {fill:#C9D7D7}
    .fil2 {fill:#D83016}
    .fil13 {fill:#E95259}
    .fil6 {fill:#F64C3B}
    .fil3 {fill:#FD705A}
    .fil11 {fill:#FEBBBC}
    .fil7 {fill:#FFE2E2}
    .fil0 {fill:black;fill-rule:nonzero}
    .fil1 {fill:#D83016;fill-rule:nonzero}
   ]]>
  </style>
 </defs>
 <g id="Layer_x0020_1">
  <metadata id="CorelCorpID_0Corel-Layer"/>
  <path class="fil0" d="M119.46 235.33c-4.18,9.34 -8.51,23.62 -12.91,42.75 -6.38,28.18 -12.15,59.69 -17.39,94.55l30.3 0.23 0 -137.53zm-42.07 227.14c-4.02,28.48 -6,46.93 -6,55.44 0,5.32 -2.2,10.33 -6.53,14.88 -4.4,4.63 -8.81,7.67 -13.29,9.11 -4.25,0.45 -8.13,0.68 -11.54,0.68 -8.28,0 -15.8,-1.44 -22.48,-4.25 -4.48,-1.9 -8.51,-5.32 -12.15,-10.18 -3.65,-4.94 -5.39,-10.02 -5.39,-15.42 2.35,-84.37 12.23,-164.41 29.54,-240.05 16.93,-73.81 46.4,-110.8 88.55,-110.8l7.37 0c47.61,0 78.14,12.07 91.66,36.15 13.52,24.15 20.2,115.2 20.2,273.31l0 43.66c0,4.86 -2.13,10.1 -6.53,15.64 -4.4,5.54 -9.19,9.11 -14.58,10.56l-2.2 0c-10.71,2.96 -23.54,4.48 -38.5,4.48 -2.5,0 -8.35,-0.61 -17.54,-1.9 -9.19,-1.21 -17.85,-4.1 -25.82,-8.43 -8.05,-4.4 -12,-11.16 -12,-20.35l0 -50.96 -42.76 -1.6z"/>
  <path id="1" class="fil0" d="M437.8 220.9c0.3,-12.45 0.68,-22.4 1.14,-29.84 0,-18.07 13.14,-27.11 39.34,-27.11 26.58,0.53 39.95,10.56 40.1,30 1.44,62.88 2.2,130.39 2.2,202.46 0,39.34 -0.3,79.59 -0.91,120.82 0,6.38 -1.75,11.47 -5.32,15.26 -3.57,3.72 -7.75,6.61 -12.61,8.51 -4.78,1.97 -9.42,3.19 -13.75,3.8 -4.4,0.61 -7.37,0.91 -9.04,0.91 -2.2,0 -6.76,-0.45 -13.52,-1.37 -6.84,-0.84 -13.52,-3.04 -19.97,-6.53 -6.45,-3.49 -10.56,-8.88 -12.3,-16.1 -4.94,-26.43 -10.78,-51.56 -17.69,-75.49 -6.91,-23.84 -12.53,-42.07 -16.78,-54.68 -0.91,-2.66 -1.6,-4.94 -2.05,-6.68 -0.15,2.66 -0.38,7.37 -0.68,14.2 -0.38,10.71 -0.91,23.62 -1.44,38.73 -0.46,15.11 -0.99,29.92 -1.44,44.27 -0.45,14.43 -0.61,25.14 -0.61,32.27 0,6.84 -2.35,12.23 -6.91,16.25 -4.63,4.02 -10.02,6.99 -16.25,8.96 -6.23,2.05 -12.15,3.26 -17.69,3.8 -5.54,0.53 -9.26,0.76 -11.01,0.76 -2.81,0 -8.66,-0.76 -17.47,-2.43 -8.81,-1.6 -17.16,-4.63 -25.06,-8.96 -7.82,-4.4 -12.38,-10.55 -13.52,-18.38 -2.13,-41.24 -3.27,-130.85 -3.57,-268.76l0 -53.84c0,-7.75 4.1,-14.81 12.45,-21.34 7.14,-5.85 18.45,-8.73 34.02,-8.73 2.2,0 4.48,0.08 6.68,0.23 9.49,0 18.3,0.45 26.5,1.37 8.13,0.91 14.35,1.82 18.68,2.89 3.42,0.91 7.06,2.73 11.01,5.54 3.95,2.81 6.53,6.07 7.9,9.8 2.05,4.33 5.32,11.09 9.8,20.27 3.95,7.97 8.12,16.25 12.3,24.76 4.25,8.58 7.97,15.87 11.24,21.95 2.2,4.18 4.02,6.99 5.32,8.43 0.3,-12.76 0.61,-24.76 0.91,-36z"/>
  <path id="2" class="fil0" d="M542.9 211.94l0 -24c0,-5.17 2.58,-10.4 7.75,-15.57 5.16,-5.16 10.4,-7.82 15.57,-7.82 21.64,0 43.21,-0.38 64.78,-1.29 21.34,-1.06 42.45,-1.6 63.41,-1.6 11.69,0 22.86,0.53 33.56,1.6 9.8,0.91 19.29,1.29 28.48,1.29 4.86,0 9.87,2.66 14.89,7.82 5.09,5.17 7.59,10.4 7.59,15.57l0 24c0,5.24 -2.58,10.4 -7.67,15.64 -5.16,5.17 -10.25,7.75 -15.49,7.75l-41.39 0c0.15,2.96 0.3,11.92 0.38,26.96 0.08,14.96 0.08,31.82 0.08,50.65 0,42.3 -0.15,84.07 -0.53,125.3 -0.38,41.24 -0.61,68.42 -0.76,81.64 0,3.72 -1.82,8.05 -5.39,12.91 -3.57,4.94 -7.9,8.13 -13.14,9.57 -10.78,2.2 -24.22,3.34 -40.25,3.34 -13.06,0 -28.25,-1.37 -45.56,-4.02 -2.73,-2.66 -5.01,-5.09 -6.91,-7.29 -1.97,-2.28 -4.33,-5.39 -7.14,-9.34 0.15,-3.04 0.23,-6 0.23,-8.96 1.07,-59.92 2.2,-115.2 3.57,-165.93 1.29,-50.73 3.04,-89 5.09,-114.82l-37.82 0c-5.16,0 -10.4,-2.58 -15.57,-7.75 -5.17,-5.24 -7.75,-10.4 -7.75,-15.64z"/>
  <path id="3" class="fil0" d="M919.95 332.99l0 -0.46c0.3,0.15 0.61,0.23 0.91,0.23 3.27,0 6.84,-4.4 10.79,-13.21 3.95,-8.81 7.21,-19.59 10.02,-32.27 2.73,-12.68 4.1,-24.76 4.1,-36.15l0 -0.46c0,-5.47 -1.29,-9.64 -3.8,-12.53 -2.51,-2.89 -4.56,-4.33 -6,-4.33l-0.23 0c-5.01,0.53 -8.73,4.48 -11.16,11.62 -2.36,7.21 -3.87,15.87 -4.63,25.97 -0.76,10.1 -1.22,19.75 -1.37,29.09 0,0.91 0,1.82 0,2.74l1.37 29.77zm35.84 60.3c2.2,13.21 7.59,25.14 16.17,35.84 8.66,10.63 17.77,19.67 27.41,26.88 9.64,7.29 17.09,12.45 22.48,15.57 1.75,1.37 3.57,3.8 5.47,7.29 1.82,3.49 2.73,7.52 2.73,12.07 0,3.27 -0.76,6.68 -2.2,10.25 -5.09,10.71 -12.6,20.58 -22.7,29.62 -10.1,9.04 -18.99,13.52 -26.73,13.52 -1.44,0 -2.96,-0.3 -4.41,-0.84 -11.31,-5.54 -22.93,-14.65 -35.08,-27.41 -12.07,-12.76 -20.73,-25.14 -26.12,-37.13l-1.06 36.68c0,6.99 -2.43,12.53 -7.14,16.48 -4.79,4.02 -10.4,7.06 -16.94,9.04 -6.53,1.97 -12.61,3.27 -18.38,3.8 -5.7,0.53 -9.57,0.76 -11.62,0.76 -2.28,0 -7.59,-0.61 -16.17,-1.9 -8.5,-1.21 -16.71,-3.87 -24.53,-7.9 -7.9,-4.02 -12.46,-10.02 -13.59,-18 -0.76,-10.56 -1.29,-28.25 -1.67,-53.16 -0.38,-24.99 -0.53,-52.4 -0.53,-82.32 0,-40.4 0.08,-79.51 0.38,-117.41 0.3,-37.89 0.68,-63.26 1.14,-76.17 0,-5.24 2.13,-10.18 6.38,-14.96 4.18,-4.71 8.66,-7.59 13.44,-8.66 10.63,-2.35 24.07,-3.57 40.25,-3.57 0,0 6.23,-0.23 18.68,-0.61 8.88,0 19.82,0.61 32.73,1.82 12.91,1.29 26.2,3.87 40.02,7.75 13.82,3.8 26.73,9.57 38.73,17.32 12,7.75 21.79,17.92 29.46,30.6 7.67,12.68 11.47,28.56 11.47,47.69 0,3.57 -0.15,7.29 -0.45,11.16 -0.15,2.05 -0.3,4.1 -0.45,6.23 -0.46,9.49 -1.67,19.44 -3.8,29.77 -4.25,17.54 -11.16,32.05 -20.73,43.51 -9.57,11.47 -19.37,20.2 -29.39,26.12 -10.02,5.92 -17.77,9.34 -23.24,10.25z"/>
  <path id="4" class="fil0" d="M1193.34 224.85l0 84.83c0,66.14 -0.91,123.1 -2.89,170.87 0,0.53 2.51,2.81 7.44,6.68 5.01,3.8 8.13,8.12 9.49,12.83 1.06,4.33 1.52,8.28 1.52,11.85 0,2.2 -0.08,4.33 -0.3,6.3 -0.23,2.05 -0.61,3.57 -1.21,4.78 -0.91,4.63 -3.19,8.81 -6.91,12.68 -3.72,3.87 -7.67,6.23 -12,7.14 -13.21,1.9 -28.71,2.89 -46.48,2.89 -13.82,0 -27.34,-0.15 -40.48,-0.45 -8.66,-0.15 -15.26,-0.23 -19.82,-0.23 -4.78,0 -10.18,-2.43 -16.18,-7.29 -6,-4.94 -8.96,-10.48 -8.96,-16.71l0 -2.2c-0.46,-2.28 -0.68,-5.32 -0.68,-9.19 0,-2.81 0.45,-6 1.29,-9.57 1.07,-4.55 4.03,-9.19 8.96,-13.75 4.4,-4.02 6.68,-6.23 6.68,-6.68l0 -24.45c-0.61,-29.69 -0.91,-63.49 -0.91,-101.46 0,-38.58 0.3,-72.45 0.91,-101.68l0 -24.07c-2.73,0 -6.53,-2.2 -11.62,-6.76 -5.01,-4.55 -8.28,-9.26 -9.8,-14.12 0,-2.05 -0.08,-4.33 -0.23,-6.68 -0.3,-2.35 -0.38,-4.78 -0.38,-7.37 0,-1.6 0.08,-3.57 0.15,-5.85 0.15,-2.28 0.53,-4.1 1.14,-5.47 1.06,-4.86 4.02,-9.57 8.89,-14.12 4.94,-4.56 10.1,-6.76 15.57,-6.76l16.94 0c17.47,0 34.55,0.23 51.18,0.61 14.81,0.45 29.16,0.68 42.91,0.68 4.48,0 9.34,2.05 14.58,6 5.32,4.02 8.58,8.58 9.95,13.59 1.44,5.92 2.2,10.86 2.2,14.66 0,1.52 -0.15,3.19 -0.45,5.16 -0.15,1.29 -0.23,2.51 -0.23,3.57 -1.44,5.47 -4.93,10.18 -10.48,14.2 -3.42,2.66 -6.68,4.55 -9.8,5.54z"/>
  <path class="fil1" d="M154.79 222.86c-4.18,9.34 -8.51,23.62 -12.91,42.75 -6.38,28.18 -12.15,59.69 -17.39,94.55l30.3 0.23 0 -137.53zm-42.07 227.14c-4.02,28.48 -6,46.93 -6,55.44 0,5.32 -2.2,10.33 -6.53,14.88 -4.4,4.63 -8.81,7.67 -13.29,9.11 -4.25,0.45 -8.13,0.68 -11.54,0.68 -8.28,0 -15.8,-1.44 -22.48,-4.25 -4.48,-1.9 -8.51,-5.32 -12.15,-10.18 -3.65,-4.94 -5.39,-10.02 -5.39,-15.42 2.35,-84.37 12.23,-164.41 29.54,-240.05 16.93,-73.81 46.4,-110.8 88.55,-110.8l7.37 0c47.61,0 78.14,12.07 91.66,36.15 13.52,24.15 20.2,115.2 20.2,273.31l0 43.66c0,4.86 -2.13,10.1 -6.53,15.64 -4.4,5.54 -9.19,9.11 -14.58,10.56l-2.2 0c-10.71,2.96 -23.54,4.48 -38.5,4.48 -2.5,0 -8.35,-0.61 -17.54,-1.9 -9.19,-1.21 -17.85,-4.1 -25.82,-8.43 -8.05,-4.4 -12,-11.16 -12,-20.35l0 -50.96 -42.76 -1.6z"/>
  <path id="1" class="fil1" d="M473.13 208.43c0.3,-12.45 0.68,-22.4 1.14,-29.84 0,-18.07 13.14,-27.11 39.34,-27.11 26.58,0.53 39.95,10.56 40.1,30 1.44,62.88 2.2,130.39 2.2,202.46 0,39.34 -0.3,79.59 -0.91,120.82 0,6.38 -1.75,11.47 -5.32,15.26 -3.57,3.72 -7.75,6.61 -12.61,8.51 -4.78,1.97 -9.42,3.19 -13.75,3.8 -4.4,0.61 -7.37,0.91 -9.04,0.91 -2.2,0 -6.76,-0.45 -13.52,-1.37 -6.84,-0.84 -13.52,-3.04 -19.97,-6.53 -6.45,-3.49 -10.56,-8.88 -12.3,-16.1 -4.94,-26.43 -10.78,-51.56 -17.69,-75.49 -6.91,-23.84 -12.53,-42.07 -16.78,-54.68 -0.91,-2.66 -1.6,-4.94 -2.05,-6.68 -0.15,2.66 -0.38,7.37 -0.68,14.2 -0.38,10.71 -0.91,23.62 -1.44,38.73 -0.46,15.11 -0.99,29.92 -1.44,44.27 -0.45,14.43 -0.61,25.14 -0.61,32.27 0,6.84 -2.35,12.23 -6.91,16.25 -4.63,4.02 -10.02,6.99 -16.25,8.96 -6.23,2.05 -12.15,3.26 -17.69,3.8 -5.54,0.53 -9.26,0.76 -11.01,0.76 -2.81,0 -8.66,-0.76 -17.47,-2.43 -8.81,-1.6 -17.16,-4.63 -25.06,-8.96 -7.82,-4.4 -12.38,-10.55 -13.52,-18.38 -2.13,-41.24 -3.27,-130.85 -3.57,-268.76l0 -53.84c0,-7.75 4.1,-14.81 12.45,-21.34 7.14,-5.85 18.45,-8.73 34.02,-8.73 2.2,0 4.48,0.08 6.68,0.23 9.49,0 18.3,0.45 26.5,1.37 8.13,0.91 14.35,1.82 18.68,2.89 3.42,0.91 7.06,2.73 11.01,5.54 3.95,2.81 6.53,6.07 7.9,9.8 2.05,4.33 5.32,11.09 9.8,20.27 3.95,7.97 8.12,16.25 12.3,24.76 4.25,8.58 7.97,15.87 11.24,21.95 2.2,4.18 4.02,6.99 5.32,8.43 0.3,-12.76 0.61,-24.76 0.91,-36z"/>
  <path id="2" class="fil1" d="M578.23 199.47l0 -24c0,-5.17 2.58,-10.4 7.75,-15.57 5.16,-5.16 10.4,-7.82 15.57,-7.82 21.64,0 43.21,-0.38 64.78,-1.29 21.34,-1.06 42.45,-1.6 63.41,-1.6 11.69,0 22.86,0.53 33.56,1.6 9.8,0.91 19.29,1.29 28.48,1.29 4.86,0 9.87,2.66 14.89,7.82 5.09,5.17 7.59,10.4 7.59,15.57l0 24c0,5.24 -2.58,10.4 -7.67,15.64 -5.16,5.17 -10.25,7.75 -15.49,7.75l-41.39 0c0.15,2.96 0.3,11.92 0.38,26.96 0.08,14.96 0.08,31.82 0.08,50.65 0,42.3 -0.15,84.07 -0.53,125.3 -0.38,41.24 -0.61,68.42 -0.76,81.64 0,3.72 -1.82,8.05 -5.39,12.91 -3.57,4.94 -7.9,8.13 -13.14,9.57 -10.78,2.2 -24.22,3.34 -40.25,3.34 -13.06,0 -28.25,-1.37 -45.56,-4.02 -2.73,-2.66 -5.01,-5.09 -6.91,-7.29 -1.97,-2.28 -4.33,-5.39 -7.14,-9.34 0.15,-3.04 0.23,-6 0.23,-8.96 1.07,-59.92 2.2,-115.2 3.57,-165.93 1.29,-50.73 3.04,-89 5.09,-114.82l-37.82 0c-5.16,0 -10.4,-2.58 -15.57,-7.75 -5.17,-5.24 -7.75,-10.4 -7.75,-15.64z"/>
  <path id="3" class="fil1" d="M955.28 320.52l0 -0.46c0.3,0.15 0.61,0.23 0.91,0.23 3.27,0 6.84,-4.4 10.79,-13.21 3.95,-8.81 7.21,-19.59 10.02,-32.27 2.73,-12.68 4.1,-24.76 4.1,-36.15l0 -0.46c0,-5.47 -1.29,-9.64 -3.8,-12.53 -2.51,-2.89 -4.56,-4.33 -6,-4.33l-0.23 0c-5.01,0.53 -8.73,4.48 -11.16,11.62 -2.36,7.21 -3.87,15.87 -4.63,25.97 -0.76,10.1 -1.22,19.75 -1.37,29.09 0,0.91 0,1.82 0,2.74l1.37 29.77zm35.84 60.3c2.2,13.21 7.59,25.14 16.17,35.84 8.66,10.63 17.77,19.67 27.41,26.88 9.64,7.29 17.09,12.45 22.48,15.57 1.75,1.37 3.57,3.8 5.47,7.29 1.82,3.49 2.73,7.52 2.73,12.07 0,3.27 -0.76,6.68 -2.2,10.25 -5.09,10.71 -12.6,20.58 -22.7,29.62 -10.1,9.04 -18.99,13.52 -26.73,13.52 -1.44,0 -2.96,-0.3 -4.41,-0.84 -11.31,-5.54 -22.93,-14.65 -35.08,-27.41 -12.07,-12.76 -20.73,-25.14 -26.12,-37.13l-1.06 36.68c0,6.99 -2.43,12.53 -7.14,16.48 -4.79,4.02 -10.4,7.06 -16.94,9.04 -6.53,1.97 -12.61,3.27 -18.38,3.8 -5.7,0.53 -9.57,0.76 -11.62,0.76 -2.28,0 -7.59,-0.61 -16.17,-1.9 -8.5,-1.21 -16.71,-3.87 -24.53,-7.9 -7.9,-4.02 -12.46,-10.02 -13.59,-18 -0.76,-10.56 -1.29,-28.25 -1.67,-53.16 -0.38,-24.99 -0.53,-52.4 -0.53,-82.32 0,-40.4 0.08,-79.51 0.38,-117.41 0.3,-37.89 0.68,-63.26 1.14,-76.17 0,-5.24 2.13,-10.18 6.38,-14.96 4.18,-4.71 8.66,-7.59 13.44,-8.66 10.63,-2.35 24.07,-3.57 40.25,-3.57 0,0 6.23,-0.23 18.68,-0.61 8.88,0 19.82,0.61 32.73,1.82 12.91,1.29 26.2,3.87 40.02,7.75 13.82,3.8 26.73,9.57 38.73,17.32 12,7.75 21.79,17.92 29.46,30.6 7.67,12.68 11.47,28.56 11.47,47.69 0,3.57 -0.15,7.29 -0.45,11.16 -0.15,2.05 -0.3,4.1 -0.45,6.23 -0.46,9.49 -1.67,19.44 -3.8,29.77 -4.25,17.54 -11.16,32.05 -20.73,43.51 -9.57,11.47 -19.37,20.2 -29.39,26.12 -10.02,5.92 -17.77,9.34 -23.24,10.25z"/>
  <path id="4" class="fil1" d="M1228.67 212.38l0 84.83c0,66.14 -0.91,123.1 -2.89,170.87 0,0.53 2.51,2.81 7.44,6.68 5.01,3.8 8.13,8.12 9.49,12.83 1.06,4.33 1.52,8.28 1.52,11.85 0,2.2 -0.08,4.33 -0.3,6.3 -0.23,2.05 -0.61,3.57 -1.21,4.78 -0.91,4.63 -3.19,8.81 -6.91,12.68 -3.72,3.87 -7.67,6.23 -12,7.14 -13.21,1.9 -28.71,2.89 -46.48,2.89 -13.82,0 -27.34,-0.15 -40.48,-0.45 -8.66,-0.15 -15.26,-0.23 -19.82,-0.23 -4.78,0 -10.18,-2.43 -16.18,-7.29 -6,-4.94 -8.96,-10.48 -8.96,-16.71l0 -2.2c-0.46,-2.28 -0.68,-5.32 -0.68,-9.19 0,-2.81 0.45,-6 1.29,-9.57 1.07,-4.55 4.03,-9.19 8.96,-13.75 4.4,-4.02 6.68,-6.23 6.68,-6.68l0 -24.45c-0.61,-29.69 -0.91,-63.49 -0.91,-101.46 0,-38.58 0.3,-72.45 0.91,-101.68l0 -24.07c-2.73,0 -6.53,-2.2 -11.62,-6.76 -5.01,-4.55 -8.28,-9.26 -9.8,-14.12 0,-2.05 -0.08,-4.33 -0.23,-6.68 -0.3,-2.35 -0.38,-4.78 -0.38,-7.37 0,-1.6 0.08,-3.57 0.15,-5.85 0.15,-2.28 0.53,-4.1 1.14,-5.47 1.06,-4.86 4.02,-9.57 8.89,-14.12 4.94,-4.56 10.1,-6.76 15.57,-6.76l16.94 0c17.47,0 34.55,0.23 51.18,0.61 14.81,0.45 29.16,0.68 42.91,0.68 4.48,0 9.34,2.05 14.58,6 5.32,4.02 8.58,8.58 9.95,13.59 1.44,5.92 2.2,10.86 2.2,14.66 0,1.52 -0.15,3.19 -0.45,5.16 -0.15,1.29 -0.23,2.51 -0.23,3.57 -1.44,5.47 -4.93,10.18 -10.48,14.2 -3.42,2.66 -6.68,4.55 -9.8,5.54z"/>
  <path class="fil2" d="M1380.01 136.03c1.62,0.63 8.65,7.06 10.59,9.03l4.65 5.16c7.46,9.15 13.34,18.76 16.41,31.81 5.64,23.9 -3.81,45.24 -14.99,59.27 -18.95,23.76 -50.05,34.22 -82.72,33.32 -8.24,-0.23 -17.59,-1.48 -25.63,-3.36 -0.93,-0.22 -6.77,-1.48 -7.49,-2.19 -1.87,2.02 -3.9,4.42 -7.19,5.69 -6.96,2.69 -12.67,-2.96 -15.69,-8.69 -0.76,-1.45 -1.43,-2.73 -2.07,-4.26 -0.46,-1.11 -1.33,-3.88 -1.77,-4.57 -0.24,0.16 0.31,0.64 -1.34,-0.48 -0.44,-0.3 -0.84,-0.53 -1.38,-0.88 -0.89,-0.59 -1.69,-1.15 -2.56,-1.73 -3.09,-2.06 -6.98,-5.49 -9.67,-7.91 -3.7,-3.33 -9.35,-10.75 -11.49,-14.66 -1.57,-2.87 -4.57,-8.88 -5.09,-12.36 -0.7,-0.71 -1.21,-0.75 -2,-1.6 -0.62,-0.67 -1.09,-1.02 -1.66,-1.81 -3.53,-4.87 -4.03,-10.88 -3.42,-16.98 0.63,-6.24 2.69,-13.65 4.99,-19.49l0.73 -1.9c0.04,-0.53 0.26,-0.2 -0.14,-0.54 -0.1,1.12 -1.78,4.03 -2.38,5.36 -6.43,14.2 -9.07,31.05 -6.22,46.54 3.42,18.56 13.05,31.21 22.37,40.36 0.69,0.67 1.33,1.2 2.05,1.83l4.1 3.65c17.72,15.25 43.35,26.3 66.39,31.68 4.57,1.07 9.65,1.75 13.17,2.58 -0.78,0.33 -5.98,5.32 -7.14,6.69 -0.58,0.68 -1.73,2.13 -2.49,2.41 0.1,0.77 -0.49,0.98 -1.49,2.39 -1.73,2.42 -3.08,4.68 -4.46,7.4 -2.96,5.83 -3.11,9.45 -4.08,11.53 -0.25,3.15 -0.88,6.09 -1.08,9.51 1.9,-0.86 3.93,-2.21 5.84,-3.2 3.02,-1.57 17.37,-9.09 19.19,-5.85 1.48,2.64 -6.56,10.93 -8.62,12.74 -4.53,3.98 -6.56,5.79 -11.81,9.85 -5.49,4.25 -23.97,16.84 -29.26,8.88 -1.23,-1.85 0.62,-3.95 1.44,-5.03 1.68,-2.23 5.27,-5.07 7.47,-6.83 0.81,-0.65 1.25,-0.97 2.1,-1.58 0.33,-0.24 1.75,-1.03 1.7,-1.34 -0.84,0.06 -8.21,3.93 -9.07,4.39 -4.04,2.17 -5.1,2.51 -10.4,2.85 -8.6,0.55 -17.43,0.43 -26.06,0.9 -3.8,0.31 -7.46,0.63 -11.15,1.34 -6.61,1.27 -8.39,3.21 -9.24,3.38 -0.66,1.03 -1.67,1.7 -2.36,3.41 -0.6,1.49 -0.89,3.11 -0.91,4.88 -0.06,8.04 5.6,19.43 13.13,21.64 2.64,0.79 6.19,1.03 9.11,0.84 13.89,-0.04 40.09,-7.1 51.41,-15.07 4.51,-3.17 8.42,-6.32 12.35,-9.58 0.69,1.32 1.38,3.15 1.98,4.56 1.78,4.17 4.44,8.65 6.85,12.35 1.85,2.84 7.1,9.86 9.82,12.66 0.7,0.73 1.09,0.74 1.46,1.66 0.64,0.33 3.13,2.94 3.94,3.76l2.74 2.38c0.47,0.37 0.87,0.74 1.34,1.12 0.53,0.43 0.87,0.71 1.35,1.09 0.45,0.35 1.02,0.5 1.16,1.14 1.07,0.25 1.62,0.98 2.47,1.56 0.78,0.53 1.54,1.04 2.32,1.56 1.46,0.96 3.18,2.06 4.82,2.87l4.41 -3.63c3.95,-3.33 14.33,-10.14 9.51,1.33 -2.96,7.05 -7.87,14.27 -11.84,19.42l-6.28 7.62c-2.97,2.93 -5.59,5.91 -9.06,8.3 -2.61,1.8 -7.46,4.99 -11.3,2.43 -2.13,-1.42 -1.56,-3.19 -0.51,-5.66 0.39,-0.9 0.89,-1.79 1.34,-2.55 0.63,-1.08 1.6,-2.13 1.13,-2.14 -0.46,0.1 -0.3,0.13 -0.65,0.57 -3.88,4.91 -4.58,5.3 -8.08,11.12l-0.62 0.72c0.07,0.66 -0.36,2.15 -0.37,3.32 -0.08,9.93 4.16,19.32 4.42,21.49 1.15,1.64 3.49,9.93 9.38,15.9 0.45,0.46 1.5,1.4 1.7,1.91 1.46,0.62 10.84,9.42 20.89,1.47 0.87,-0.69 1.46,-1.48 2.21,-2.48 0.84,-1.13 1.03,-1.9 1.76,-3.16 0.91,-3.37 1.79,-6 0.14,-9.49 -0.59,-1.25 -1.53,-2.41 -2.31,-3.42 -0.93,-1.21 -1.97,-2.17 -2.72,-3.4 -0.56,-0.07 -0.3,-0.04 -0.7,-0.52 -0.27,-0.33 -0.36,-0.5 -0.64,-0.82l-2.76 -2.95c-0.53,-0.58 -0.7,-0.88 -1.33,-1.53 -1.37,-1.41 -3.97,-4.83 -4.99,-6.46 -1.84,-2.93 -2.69,-5.13 -0.64,-8.38 3.49,-5.53 10.75,-14.02 15.04,-19.28l9.69 -13.44c2.31,-0.03 4.87,0.61 7.56,0.55 4.45,-0.11 9.49,-1.05 13.37,-3.07 0.97,-0.51 1.81,-0.87 2.69,-1.41 0.92,-0.57 1.68,-1.24 2.64,-1.64 -0.01,11.7 2.85,20.05 8.11,28.05 4.06,6.16 9.78,11.75 15.6,16.06l2.05 1.42c0.66,0.55 0.34,-0.04 0.56,0.8 0.43,-0.24 0.2,-0.21 0.76,0.11 2.23,1.29 4.04,2.73 7.01,4.25 1.45,0.74 2.84,1.44 4.18,2.15 0.83,0.44 3.71,1.43 4.09,2.16 1.18,-0.21 8.06,3.61 10.32,3.64 0.84,-0 1,-0.97 1.93,-2.4 3.79,-5.83 6.97,-10.44 11.34,-15.83 2.38,-2.95 8.4,-10.06 11.8,-11.1 5.4,-1.65 0.4,11.23 -0.2,12.89 -3.14,8.7 -16.23,35.37 -26.79,36.96 -1.9,0.29 -4.39,-0.5 -4.91,-1.82 -0.25,-0.64 -0.13,-1 -0.26,-1.59 -0.12,-0.53 0.06,-0.12 -0.16,-0.45l-0.52 0.97c-0.73,2.33 -1.62,3.15 -1.97,6.14 -0.78,6.65 0.56,15.59 2.54,21.66 2.54,7.78 7.29,15.3 16.33,16.17 7.99,0.77 13.66,-5.25 13.07,-11.23 -0.2,-2.05 -1.61,-4.02 -2.46,-5.7 -1.58,-3.12 -9.51,-19.5 -7.34,-23.74 0.16,-0.31 0.11,-0.21 0.28,-0.4 0.02,-1 2.17,-5.59 2.71,-6.55l3.81 -8.35 3.4 0.57 -1.01 -0.38c2.88,-3.25 3.2,-2.4 6.55,-7.76 5.66,-9.05 8.58,-21.58 10.05,-32.48 -5.77,-0.76 -14,-3.85 -19.14,-5.84 -11.56,-4.48 -25.23,-12.94 -33.86,-22.12 -3.21,-3.42 -5.51,-6.02 -8.08,-10.32 -1.54,-2.57 -2.96,-5.29 -3.99,-8.47 -0.55,-1.7 -0.95,-3.36 -1.2,-5.16 -0.37,-2.79 -0.24,-2.68 0.9,-4.83 4.64,-8.67 6.39,-10 11.65,-16.34 0.49,-0.6 0.91,-1.06 1.43,-1.63 0.98,-1.07 2.02,-2.03 3.12,-3.01 2.2,-1.96 4.26,-3.79 6.71,-5.75 2.31,-1.84 12.5,-9.04 15.04,-9.7 -0.57,-0.56 -0.78,-0.44 -1.35,-0.93 -0.37,-0.31 -0.06,0 -0.35,-0.38l5.41 -2.93c0.36,-0.23 0.17,-0.11 0.38,-0.29l0.24 -0.25c-4.11,1.26 -19.67,10.67 -22.98,12.9 -6.97,4.69 -11.69,8.15 -18.08,13.18 -0.76,0.6 -1.84,1.59 -2.57,1.95 -0.69,-10.08 -2.08,-15.56 -5.64,-23.88 -3.02,-7.06 -6.98,-12.4 -11.64,-18.18 -2.36,-2.93 -4.63,-4.87 -7.14,-7.57 -1.23,-1.33 -6.76,-5.63 -8.2,-6.72 -2.77,-2.08 -5.77,-3.94 -9.1,-5.81 -3.07,-1.73 -9.03,-4.13 -10.13,-4.78 12.81,-1.73 20.84,-2.91 32.95,-7.78 8.37,-3.37 15.8,-7.71 22.55,-13.21 1.65,-1.34 6.51,-5.86 7.74,-7.38 5.33,-6.57 7.83,-9.1 12.22,-18.43 4.55,-9.68 7.1,-20.86 8.07,-32.74 2.46,-30.03 -7.84,-56.82 -25.46,-75.98l-4.98 -5.24c-0.82,-0.78 -1.74,-1.8 -2.59,-2.51 -7.64,-6.39 -11.4,-9.84 -20.53,-15.23 -1.8,-1.07 -4.62,-2.87 -6.64,-3.67 -0.54,1.36 -1.09,2.76 -1.75,4.06 -0.67,1.31 -1.09,2.6 -1.85,3.91z"/>
  <path class="fil3" d="M1269.43 133.67c1.39,1.28 2.48,3.61 2.93,6.23 0.26,1.5 0.46,6.29 0.11,7.66 -0.17,0.66 0.27,0.68 -0.41,0.61 -0.37,4.15 -1.4,8.18 -2.48,12.01 -0.3,1.06 -2.78,9.81 -3.75,10.67 -0.03,1.04 -1.42,4.45 -1.9,5.35 -2.89,10.59 -10.98,26.27 -18.14,34.77l-3.45 3.96c0.56,0.05 0.96,0.73 1.29,1.11 2.61,2.97 6.43,5.41 9.88,7.29 11.73,6.4 37.04,9.77 50.04,8.11l0.3 -6.44c0.67,-12.63 7.39,-27.46 12.79,-36.14 1.62,-2.61 3.24,-4.88 4.96,-7.1 3.57,-4.59 7.57,-8.73 12.19,-12.33 1.12,-0.87 2.25,-1.72 3.55,-2.57 0.7,-0.46 3.33,-1.82 3.76,-2.42 0.07,-0.59 6.55,-3.59 8.05,-4.16 3.16,-1.19 6.72,-2.05 10.36,-2.26 8.27,-0.47 13.41,1.65 19.79,5.48l0.22 -1.2c-0.01,-0.39 -0.08,-0.84 -0.11,-1.27 -0.08,-0.9 -0.18,-1.74 -0.31,-2.61 -1.64,-11.29 -7.23,-19.33 -14.95,-26.73 -6.37,-6.11 -18.7,-12.16 -27.12,-14.56 -18.34,-5.23 -38.16,-1.53 -54.34,7.52 -1.95,1.09 -12.77,7.51 -13.24,9.02z"/>
  <path class="fil4" d="M1455.78 349.13l-0.24 0.25c-0.22,0.18 -0.03,0.06 -0.38,0.29l-5.41 2.93c0.29,0.38 -0.01,0.07 0.35,0.38 0.57,0.49 0.78,0.37 1.35,0.93 3.21,1.08 9.72,8.3 11.78,11.1 1.1,1.5 2.13,3.03 3.11,4.66 13.01,21.8 15.43,52.14 12.53,77.42 -1.48,10.9 -4.4,23.43 -10.05,32.48 -3.35,5.36 -3.66,4.51 -6.55,7.76l1.01 0.38c3.08,0.78 15.8,2.73 18.76,2.26l10.45 -0.09c4.89,-0.2 9.68,-0.57 14.5,-1.18 2.63,-0.33 2.2,0.04 3.26,-2.03 1.21,-2.36 2.4,-4.61 3.53,-7.09 4.09,-9 6.87,-18.05 9.03,-27.73 0.25,-1.14 0.62,-3.44 0.92,-4.27 0.51,-4.06 1.35,-8.01 1.84,-12.16 0.51,-4.3 0.87,-8.69 1.07,-13.06 0.39,-8.78 0.24,-18.38 -0.81,-26.95 -1.29,-15.04 -7.38,-39.61 -18,-51.3 -0.57,-0.62 -0.66,-0.59 -1.03,-1.25 -0.71,-0.56 -1.24,-1.26 -1.96,-1.89 -0.46,-0.4 -1.66,-1.35 -2.01,-1.78 -0.64,-0.43 -3.45,-2.16 -3.93,-2.69 -8.1,0.64 -15.9,2.47 -23.17,4.71 -6.59,2.03 -14.27,5.01 -19.94,7.92z"/>
  <path class="fil5" d="M1352.96 498.12c-0.73,1.26 -0.92,2.03 -1.76,3.16 -0.75,1 -1.34,1.8 -2.21,2.48 -10.05,7.95 -19.43,-0.85 -20.89,-1.47 -0.08,0.42 0.08,0.17 -0.74,0.41 -0.44,0.12 -0.7,0.18 -1.14,0.3 -0.87,0.25 -1.59,0.46 -2.37,0.7 -8.91,2.84 -20.85,8.09 -24.58,16.99 -5.25,12.53 13.94,19.82 23.26,22.84 25.34,8.23 55.87,9.89 84.77,9.9 25.5,0.01 61.63,-4.42 80.14,-14.98 13.88,-7.92 18.05,-16.62 2.18,-25.22 -5.14,-2.79 -11.12,-4.86 -17.13,-6.59 -3.14,-0.9 -6.11,-1.64 -9.41,-2.43 -1.29,-0.31 -9.37,-1.76 -9.72,-2.2 -0.17,0.19 -0.12,0.08 -0.28,0.4 -2.17,4.24 5.76,20.61 7.34,23.74 0.85,1.68 2.26,3.65 2.46,5.7 0.58,5.99 -5.09,12 -13.07,11.23 -9.04,-0.87 -13.79,-8.38 -16.33,-16.17 -1.98,-6.08 -3.32,-15.02 -2.54,-21.66 0.35,-3 1.24,-3.81 1.97,-6.14l-9.65 -1.13c0.38,3.16 1.21,6.63 1.9,9.67 0.56,2.46 2.12,7.14 1.31,9.44 -2.31,6.56 -14.69,11.27 -23.29,5.2 -2.2,-1.55 -3.79,-3.26 -5,-6.24 -2.64,-6.49 -0.73,-13.34 0.49,-19.75 -1.17,0.41 -9.8,0.01 -11.8,0.02 -6.94,0.01 -27.9,0.46 -33.93,1.79z"/>
  <path class="fil6" d="M1269.43 133.67c0.47,-1.51 11.29,-7.92 13.24,-9.02 16.17,-9.05 36,-12.76 54.34,-7.52 8.42,2.4 20.75,8.45 27.12,14.56 7.72,7.4 13.32,15.44 14.95,26.73 0.13,0.86 0.23,1.71 0.31,2.61 0.04,0.43 0.1,0.87 0.11,1.27l-0.22 1.2c0.6,0.61 3.68,2.79 6.04,5.42 7.43,8.3 10.3,20.52 8.61,32.08 -1.58,10.77 -6.37,19.43 -12.42,27.41 -1.67,2.21 -3.08,3.59 -4.62,5.39l-1.17 1.31c-0.36,0.3 -0.09,0.4 -0.45,0.12 -0.79,0.69 -0.66,0.86 -1.3,1.59 -3.02,3.46 -7.14,7.25 -10.82,10.02 -12.75,9.6 -28.61,15.62 -44.63,8.7 -2.26,-0.98 -6.36,-3.19 -7.44,-4.63 -5.58,-2.84 -7.92,-11.18 -7.55,-19.48 -13,1.66 -38.32,-1.71 -50.04,-8.11 -3.44,-1.88 -7.26,-4.32 -9.88,-7.29 -0.33,-0.38 -0.73,-1.06 -1.29,-1.11 -0.75,0.31 -2.5,1.89 -3.63,2.64 -1.3,0.86 -2.72,1.52 -4.43,1.92 -1.22,0.85 -4.15,1.27 -5.93,1.24 -2.51,-0.04 -3.8,-0.7 -5.75,-1.51 0.52,3.48 3.52,9.49 5.09,12.36 2.13,3.91 7.78,11.33 11.49,14.66 2.69,2.42 6.58,5.85 9.67,7.91 0.87,0.58 1.66,1.15 2.56,1.73 0.54,0.35 0.93,0.58 1.38,0.88 1.65,1.12 1.1,0.63 1.34,0.48 -0.42,-2.11 -1.38,-4.71 -1.93,-7.03 -0.9,-3.75 -0.24,-4.06 -1.89,-4.85 -3.76,-1.8 -9.79,-5.52 -9.25,-10.99 3.35,1.7 2.69,2.39 9.8,5.12 12.45,4.77 26.58,5.03 39.68,3.43 -0.6,7.82 -3.34,17.11 -7.81,23.54 -0.6,0.87 -1.4,1.85 -1.87,2.62 0.72,0.71 6.56,1.97 7.49,2.19 8.04,1.87 17.39,3.13 25.63,3.36 32.67,0.9 63.78,-9.56 82.72,-33.32 11.19,-14.03 20.63,-35.37 14.99,-59.27 -3.08,-13.04 -8.95,-22.66 -16.41,-31.81l-4.65 -5.16c-1.94,-1.97 -8.97,-8.4 -10.59,-9.03 -0.72,1.31 -2.97,4.63 -5.32,3.09 -2.06,-1.35 -1.09,-5.19 -0.64,-7.61 -2.8,-1.4 -6.81,-4.22 -11.44,-6.49 -4.12,-2.01 -8.14,-3.84 -12.65,-5.32 -20.92,-6.85 -40.74,-8.1 -61.82,-1.02 -7.81,2.62 -17.02,7.6 -23.38,12.79 1.46,0.8 1.37,-0.24 4.66,2.19z"/>
  <path class="fil6" d="M1351.16 316.64c-12.24,1.72 -17.53,10.56 -17.35,22.35 0.42,27.82 35.57,72.75 65.17,58.26 2.84,-1.39 3.81,-2.35 5.49,-4.52 10.26,-13.23 2.02,-33.34 -5.49,-44.79 -5.16,-7.87 -11.38,-14.99 -18.83,-20.8 -6.12,-4.78 -17.73,-12.08 -28.99,-10.49z"/>
  <path class="fil6" d="M1478.87 447.08c2.9,-25.28 0.48,-55.62 -12.53,-77.42 -0.98,-1.64 -2,-3.17 -3.11,-4.66 -2.06,-2.8 -8.57,-10.02 -11.78,-11.1 -2.54,0.66 -12.73,7.86 -15.04,9.7 -2.46,1.96 -4.51,3.79 -6.71,5.75 -1.09,0.98 -2.13,1.94 -3.12,3.01 -0.52,0.57 -0.94,1.04 -1.43,1.63 -5.26,6.34 -7.01,7.68 -11.65,16.34 -1.15,2.15 -1.28,2.05 -0.9,4.83 0.25,1.81 0.65,3.46 1.2,5.16 1.03,3.17 2.45,5.9 3.99,8.47 2.57,4.3 4.87,6.9 8.08,10.32 8.63,9.18 22.3,17.64 33.86,22.12 5.13,1.99 13.37,5.08 19.14,5.84z"/>
  <path class="fil6" d="M1502.83 339.19c0.35,0.44 1.54,1.38 2.01,1.78 0.72,0.63 1.25,1.32 1.96,1.89 19.19,-3.63 48.44,3.31 54.25,17.09 2.06,4.89 0.79,10.95 -1.41,15.11 -4.1,7.73 -11.96,13.02 -19.99,16.37 -1.99,0.83 -12.05,4.45 -13.81,3.97 1.05,8.56 1.2,18.17 0.81,26.95 -0.19,4.37 -0.56,8.77 -1.07,13.06 -0.49,4.15 -1.33,8.1 -1.84,12.16 9.04,-0.79 25.09,-8.02 32.86,-12.63 4.81,-2.85 9.42,-6.1 13.36,-9.32l10.48 -9.54c1.13,-1.25 0.62,-0.89 1.09,-1.91 0.71,-15.16 -2.19,-35.73 -8.27,-49.49 -0.91,-2.07 -5.47,-11.3 -6.97,-12.1 -8.22,-4.64 -18.02,-8.3 -28.22,-10.75 -5.33,-1.28 -11.13,-2.19 -16.76,-2.65 -2.51,-0.21 -17.21,-0.98 -18.49,-0z"/>
  <path class="fil7" d="M1322.67 184.12c3.32,-1.55 5.27,-3.41 10.69,-3.2 3.98,0.16 7.62,1.66 10.08,3.53 5.32,4.05 9.15,11.37 9.13,18.24 -3.84,0.84 -10.95,4.05 -13.44,5.99 -1.43,0.57 -4.66,3.23 -5.07,4.75 -0.9,3.31 2.25,4.27 4.99,4.58 2.36,0.12 4.42,-0.03 6.67,-0.47 2.12,-0.41 3.86,-1.14 5.72,-1.53 -0.95,5.84 -4.51,13.46 -7.72,18.32 -5.48,8.3 -15.03,16.78 -25.32,17.66 1.79,1.56 8.49,2.83 11.49,2.96 8.49,0.37 15.93,-2.12 22.85,-6.29 4.96,-2.98 6.31,-4.39 10.27,-7.92l3.63 -3.73c3.26,-4.1 4.65,-5.42 7.73,-10.65 3.67,-6.22 6.57,-13.56 7.37,-22.02 1.69,-17.84 -6.85,-33.99 -20.24,-37.95 -7.99,-2.36 -17.43,0.71 -23.32,4.17 -4.64,2.73 -4.9,3.2 -8.55,6.16 -1.06,0.86 -6.9,6.63 -6.96,7.4z"/>
  <path class="fil4" d="M1375.41 124.03l-1.36 7.48c-0.45,2.42 -1.42,6.26 0.64,7.61 2.35,1.54 4.6,-1.78 5.32,-3.09 0.76,-1.32 1.19,-2.61 1.85,-3.91 0.66,-1.3 1.21,-2.7 1.75,-4.06 4.59,-10.14 7.25,-28 7.83,-39.3 1.07,-20.87 -2.39,-41 -11.89,-58.9 -3.31,-6.24 -5.8,-9.03 -9.8,-13.9 -0.9,-1.09 -1.91,-2.08 -2.87,-3.05l-4.57 -4.22c-1.95,-1.5 -2.62,-2.22 -5.1,-3.89 -4.55,-3.09 -11.51,-6.03 -18.45,-4.26 -13.63,3.48 -16.41,19.49 -2.54,26.27 5.66,2.76 9.56,3.47 15.83,7.87 4.02,2.82 3.52,2.62 6.7,5.15 1.11,0.88 1.93,1.97 3,2.92 0.89,0.79 1.98,2.19 2.77,3.16 15.83,19.59 16.17,49.57 10.89,78.12z"/>
  <path class="fil4" d="M1566.29 352.59c1.5,0.8 6.06,10.02 6.97,12.1 6.08,13.76 8.98,34.33 8.27,49.49 -0.32,13.78 -2.8,31.86 -7.76,45.1 -0.05,0.13 -0.2,0.49 -0.22,0.61 -0.2,1.09 -0.14,0.35 0.08,0.7l7.35 -5.95c1.1,-1.01 2.49,-2.02 3.47,-3.07 1.66,-1.78 4.19,-3.86 6.73,-6.55 5.3,-5.62 10.67,-12.09 14.71,-18.6 1.7,-2.74 3.37,-5.49 4.95,-8.33 4.89,-8.78 10.97,-19.94 4.97,-29.72 -0.9,-1.48 -1.77,-2.53 -2.78,-3.77 -2.89,-3.56 -8.84,-7.67 -12.59,-10.7 -4.74,-3.83 -6.83,-6.02 -12.79,-10.51 -2.51,-1.89 -5.08,-3.72 -7.77,-5.5 -2.29,-1.52 -14.57,-9.21 -16.97,-9.61 -0.05,0.42 0.32,0.59 0.7,0.94 0.5,0.46 0.55,0.61 0.96,1.1 0.62,0.73 1.29,1.43 1.72,2.3z"/>
  <path class="fil2" d="M1523.73 447.57c-0.31,0.83 -0.67,3.14 -0.92,4.27 -2.16,9.68 -4.94,18.73 -9.03,27.73 -1.13,2.48 -2.32,4.73 -3.53,7.09 -1.06,2.07 -0.63,1.7 -3.26,2.03 -4.82,0.61 -9.61,0.98 -14.5,1.18l-10.45 0.09c0.51,0.24 0.99,0.2 1.68,0.22 4.44,0.15 8.66,0.14 13.1,-0.12 4.62,-0.27 9.19,-0.79 13.66,-1.52 20.76,-3.39 41.9,-12.53 58.7,-24.66 1.49,-1.07 3.15,-2.13 4.44,-3.3 -0.22,-0.35 -0.28,0.4 -0.08,-0.7 0.02,-0.12 0.17,-0.47 0.22,-0.61 4.97,-13.24 7.44,-31.32 7.76,-45.1 -0.47,1.02 0.04,0.66 -1.09,1.91l-10.48 9.54c-3.94,3.22 -8.55,6.47 -13.36,9.32 -7.77,4.6 -23.82,11.84 -32.86,12.63z"/>
  <path class="fil4" d="M1311.03 112.31l8.1 -0.32c-3.29,-9.08 -11.27,-25.23 -16.2,-33.71 -3.15,-5.42 -6.42,-10.35 -9.93,-15l-8.57 -10.23c-0.54,-0.6 -0.85,-0.88 -1.56,-1.51 -0.98,-0.87 -3.1,-3.19 -4.79,-4.6 -14.11,-11.87 -27.64,-18.68 -46.61,-22.04 -10.78,-1.91 -21.83,0.72 -25.59,10.93 -2.27,6.18 0.06,13.6 7.57,15.65 3.94,1.08 7.36,0.31 11.14,-0.43 21.21,-4.17 39.34,2.3 54.55,14.83 0.61,0.5 1.16,1.01 1.77,1.5 0.6,0.48 0.99,0.99 1.57,1.48 3.18,2.74 7.91,8.03 10.47,11.4 5.62,7.39 10.11,14.42 14.26,23.12 0.97,2.03 3.34,6.82 3.81,8.92z"/>
  <path class="fil8" d="M1214.24 312.55c0.62,1.15 7.36,4.35 8.18,5.6 2.94,0.96 13.84,8.11 16.3,10.87 1.93,2.17 1.99,2.71 2.78,6.23 10.52,0.21 21.02,-0.62 31.59,-0.39 4.28,0.09 9.73,1.48 13.93,2.25 2.77,0.51 11.67,2.37 13.89,2.21 0.97,-2.08 1.12,-5.7 4.08,-11.53 1.38,-2.72 2.73,-4.98 4.46,-7.4 1,-1.41 1.59,-1.62 1.49,-2.39 -15.8,-5.08 -57.7,-11.42 -74.42,-11.84 -6.05,-0.15 -16.01,-0.14 -20.5,4.56 -0.33,0.34 -0.55,0.48 -0.93,0.91 -0.39,0.44 -0.31,0.54 -0.83,0.93z"/>
  <path class="fil3" d="M1506.8 342.86c0.37,0.66 0.46,0.62 1.03,1.25 10.62,11.69 16.71,36.26 18,51.3 1.76,0.48 11.82,-3.14 13.81,-3.97 8.04,-3.36 15.89,-8.65 19.99,-16.37 2.21,-4.16 3.48,-10.22 1.41,-15.11 -5.81,-13.78 -35.06,-20.72 -54.25,-17.09z"/>
  <path class="fil8" d="M1297.47 478.32l0.81 0.75c2.36,2.3 4.02,3.21 7.39,4.46 3.99,1.49 6.98,2.01 11.35,0.96 -0.26,-2.17 -4.5,-11.56 -4.42,-21.49 0.01,-1.17 0.43,-2.67 0.37,-3.32 -0.29,-1.73 -3.59,-8.13 -4.48,-14.09 -0.65,-4.36 0.91,-5.79 4.54,-9.05l13.89 -12.06c2.15,-1.96 7.38,-6.48 8.41,-8.33 -0.14,-0.64 -0.72,-0.8 -1.16,-1.14 -0.49,-0.38 -0.82,-0.66 -1.35,-1.09 -0.47,-0.38 -0.86,-0.74 -1.34,-1.12l-2.74 -2.38c-0.81,-0.82 -3.3,-3.44 -3.94,-3.76 -4.39,1.07 -15.51,8.25 -19.53,10.89 -2.11,1.39 -10.72,7.71 -12.95,9.93 -3.15,3.12 -5.43,3.78 -6.22,9.13 -0.9,6.13 0.36,14.81 1.74,20.67 1.48,6.29 4.12,13.63 7.92,18.84l1.27 1.59c0.37,0.46 0.19,0.16 0.47,0.62z"/>
  <path class="fil9" d="M1307.11 210.7c-0.02,1.01 -1.29,4.93 -1.63,6.46 -0.45,2.05 -0.99,4.64 -1.19,6.81 -0.25,7.11 -1.35,13.88 1.94,19.97 2.75,5.08 10.21,5.69 16.04,2.46 8.59,-4.75 15.72,-18.52 16.77,-28.39 -2.74,-0.31 -5.89,-1.26 -4.99,-4.58 0.41,-1.52 3.64,-4.18 5.07,-4.75 0.13,-1.91 -1.07,-5.38 -1.77,-6.91 -1.81,-3.98 -4.43,-6.66 -8.27,-8.7 -7.02,-3.73 -12.65,0.55 -16.41,6.13 -1.9,2.82 -3.08,5.37 -4.33,8.55l-1.25 2.95z"/>
  <path class="fil8" d="M1414.33 469.19c-1.55,0.88 -8.85,10.43 -10.12,12.99 -0.34,0.69 -2.17,4.74 -2.39,4.94 -0.46,1.57 -1.15,3.09 -1.7,4.66 -0.5,1.43 -0.9,3.16 -1.44,4.53 -1.22,6.41 -3.13,13.26 -0.49,19.75 1.21,2.98 2.8,4.69 5,6.24 8.6,6.07 20.98,1.35 23.29,-5.2 0.81,-2.3 -0.75,-6.97 -1.31,-9.44 -0.7,-3.04 -1.52,-6.51 -1.9,-9.67 -0.33,-1.73 -1.21,-7.03 -0.36,-8.41 -0.33,-2.3 2.28,-5 3.26,-6.29 0.74,-0.97 1.32,-1.68 2.08,-2.62 0.52,-0.65 1.82,-2.1 2.12,-2.8 -0.37,-0.73 -3.26,-1.72 -4.09,-2.16 -1.34,-0.72 -2.74,-1.41 -4.18,-2.15 -2.97,-1.52 -4.79,-2.96 -7.01,-4.25 -0.56,-0.32 -0.33,-0.35 -0.76,-0.11z"/>
  <path class="fil3" d="M1363.63 322.98c-5.96,1.12 -7.38,6.91 -6.66,12.18 1.87,13.58 17.34,32.52 28.86,26.68 3.45,-1.75 6.93,-6.36 7.5,-11.53 0.62,-5.62 -2.25,-10.98 -4.82,-14.16 -2.86,-3.55 -5.86,-6.36 -10.21,-9 -3.27,-1.99 -9.77,-5.08 -14.67,-4.16z"/>
  <path class="fil9" d="M1241.97 172.56c0.15,2.11 -0.82,6.6 -1.77,8.11 -0.56,0.89 -1.59,1.93 -3.08,1.9 -1.56,-0.03 -2.38,-1.16 -3.05,-1.75 -4.11,6.05 -7.7,21.63 -4.95,29.68 1.54,4.53 5.38,8.32 10.57,4.8 3.43,-2.32 6.56,-5.89 9.11,-9.27 4.28,-5.66 10.47,-16.02 11.8,-24.99 0.9,-6.08 -0.61,-10.81 -5.56,-12.39 -2.46,-0.79 -5.51,-0.91 -8.08,-0.2 -1.11,0.3 -2.17,0.78 -3.16,1.33 -2.7,1.48 -1.01,1.48 -1.84,2.79z"/>
  <path class="fil10" d="M1254.1 257.24c0.44,0.69 1.31,3.47 1.77,4.57 0.65,1.53 1.31,2.81 2.07,4.26 3.02,5.73 8.73,11.39 15.69,8.69 3.29,-1.27 5.33,-3.66 7.19,-5.69 0.47,-0.77 1.27,-1.76 1.87,-2.62 4.47,-6.44 7.21,-15.72 7.81,-23.54 -13.09,1.6 -27.23,1.35 -39.68,-3.43 -7.12,-2.73 -6.45,-3.42 -9.8,-5.12 -0.54,5.47 5.48,9.19 9.25,10.99 1.65,0.79 1,1.1 1.89,4.85 0.56,2.33 1.51,4.92 1.93,7.03z"/>
  <path class="fil11" d="M1341.08 164.43c-0.43,0.59 -3.06,1.96 -3.76,2.42 -1.3,0.85 -2.42,1.7 -3.55,2.57 -4.62,3.6 -8.62,7.74 -12.19,12.33 -1.72,2.21 -3.33,4.49 -4.96,7.1 -5.4,8.68 -12.12,23.51 -12.79,36.14 0.04,-0.09 0.16,-0.44 0.17,-0.46 0.19,-0.45 0.19,-0.4 0.28,-0.56 0.2,-2.16 0.73,-4.76 1.19,-6.81 0.34,-1.53 1.61,-5.46 1.63,-6.46 0.73,-4.08 4.32,-11.59 6.2,-14.95 2.66,-4.75 4.43,-7.04 8.1,-10.5 0.57,-0.53 0.86,-0.58 1.27,-1.13 0.05,-0.77 5.9,-6.54 6.96,-7.4 3.65,-2.96 3.9,-3.43 8.55,-6.16 5.88,-3.45 15.33,-6.53 23.32,-4.17 13.4,3.96 21.94,20.11 20.24,37.95 -0.8,8.46 -3.7,15.8 -7.37,22.02 -3.08,5.23 -4.48,6.56 -7.73,10.65l-3.63 3.73c-3.96,3.53 -5.31,4.93 -10.27,7.92 -6.92,4.16 -14.36,6.65 -22.85,6.29 -3,-0.13 -9.7,-1.4 -11.49,-2.96 -3.3,0.3 -4.59,-0.18 -7.3,-1.08 1.08,1.44 5.18,3.65 7.44,4.63 16.02,6.91 31.88,0.89 44.63,-8.7 3.69,-2.77 7.8,-6.56 10.82,-10.02 0.64,-0.73 0.51,-0.9 1.3,-1.59 0.17,-0.52 1.31,-2.02 1.68,-2.58 9.8,-14.57 13.73,-33.59 7.2,-50.3 -6.28,-16.08 -20.18,-24.46 -36.96,-20.11 -2.01,0.52 -5.78,2.14 -6.13,2.2z"/>
  <path class="fil7" d="M1231.51 219.44c-2.26,-1.17 -3.16,-1.52 -4.49,-3.54 -7.23,-11.04 -1.56,-34.22 4.29,-44.58 0.08,4.05 1.12,6.76 2.78,9.51 0.66,0.59 1.49,1.72 3.05,1.75 1.48,0.03 2.52,-1.01 3.08,-1.9 0.95,-1.51 1.92,-6.01 1.77,-8.11 -0.17,-1.32 0.53,-3.18 -0.31,-7.06 -0.49,-2.27 -1.14,-3.78 -2.81,-4.78 2.59,-2.08 4.27,-3.79 8.29,-4.98 7.46,-2.19 14.63,0.67 16.82,8.5 1.22,4.36 0.56,7.64 -0.05,11.95 0.48,-0.9 1.87,-4.31 1.9,-5.35 1.16,-5.95 3.43,-10.15 3.43,-17.97 0.01,-8.67 -2.56,-10.81 -11.22,-9.11 -25.63,5.03 -51.28,55.08 -34.02,72.28 1.37,1.37 4.38,3.82 7.49,3.4z"/>
  <path class="fil6" d="M1344.93 422.14l-6.09 5.9c-4.15,4.17 -7.48,7.76 -11.26,12.44 -0.94,1.16 -1.68,2.05 -2.6,3.32 -1.09,1.51 -2.04,2.34 -2.67,3.47 0.47,0 -0.5,1.06 -1.13,2.14 -0.44,0.76 -0.95,1.64 -1.34,2.55 -1.05,2.47 -1.61,4.24 0.51,5.66 3.84,2.56 8.7,-0.63 11.3,-2.43 3.47,-2.4 6.09,-5.37 9.06,-8.3l6.28 -7.62c3.97,-5.15 8.88,-12.37 11.84,-19.42 4.82,-11.47 -5.55,-4.66 -9.51,-1.33l-4.41 3.63z"/>
  <path class="fil6" d="M1440.69 481.51c0.2,0.53 0.26,-0.09 0.01,0.77l-2.52 4.45c-0.42,0.76 -2.38,4.95 -2.62,5.15 -0.36,1.11 -0.78,1.99 -1.17,3.14 -0.36,1.05 -0.53,2.13 -0.95,3.15 0.22,0.33 0.04,-0.08 0.16,0.45 0.13,0.59 0.01,0.95 0.26,1.59 0.52,1.32 3,2.11 4.91,1.82 10.55,-1.59 23.64,-28.27 26.79,-36.96 0.6,-1.66 5.6,-14.54 0.2,-12.89 -3.4,1.04 -9.41,8.16 -11.8,11.1 -4.37,5.39 -7.55,10 -11.34,15.83 -0.93,1.43 -1.09,2.4 -1.93,2.4z"/>
  <path class="fil6" d="M1299.82 348.82c-0.36,0.33 -11.57,7.15 -11.96,7.63 0.05,0.3 -1.36,1.1 -1.7,1.34 -0.85,0.61 -1.28,0.93 -2.1,1.58 -2.2,1.76 -5.79,4.6 -7.47,6.83 -0.82,1.08 -2.67,3.18 -1.44,5.03 5.29,7.96 23.76,-4.62 29.26,-8.88 5.25,-4.06 7.28,-5.88 11.81,-9.85 2.06,-1.81 10.1,-10.1 8.62,-12.74 -1.82,-3.24 -16.17,4.28 -19.19,5.85 -1.91,0.99 -3.94,2.34 -5.84,3.2z"/>
  <path class="fil2" d="M1311.03 112.31c-1.99,0.42 -5.3,0.52 -7.59,0.85 -2.48,0.35 -4.87,0.77 -7.28,1.28 -4.66,0.99 -9.12,2.34 -13.29,3.89 -14.82,5.53 -21.65,13.23 -24.46,14.16 -4.1,1.35 -10.38,5.44 -13.12,8.33 -0.76,0.81 -1.43,1.32 -2.23,2.06 -2.67,2.48 -7.52,8.6 -9.69,11.77 -2.22,3.24 -4.65,7.02 -6.48,10.78l0.56 -0.56c2.01,-2.5 4.73,-6.6 7.2,-9.15 2.02,-2.09 4.23,-4.64 6.4,-6.46 5.31,-4.46 12.03,-10.12 19.98,-10.43 6.48,-0.25 10.91,4.35 11,9.34 0.68,0.08 0.24,0.05 0.41,-0.61 0.35,-1.37 0.16,-6.16 -0.11,-7.66 -0.45,-2.63 -1.54,-4.95 -2.93,-6.23 -3.29,-2.43 -3.2,-1.39 -4.66,-2.19 6.36,-5.19 15.57,-10.17 23.38,-12.79 21.07,-7.08 40.9,-5.83 61.82,1.02 4.51,1.48 8.53,3.3 12.65,5.32 4.62,2.26 8.64,5.09 11.44,6.49l1.36 -7.48c-1.86,-0.63 -3.99,-1.67 -5.9,-2.42 -2.07,-0.8 -4.11,-1.56 -6.29,-2.29 -4.32,-1.44 -8.72,-2.73 -13.38,-3.78 -7.55,-1.71 -14.69,-2.79 -22.45,-3.28 -2.55,-0.16 -5.89,0.02 -8.26,-0.28l-8.1 0.32z"/>
  <path class="fil12" d="M1241.97 172.56c0.83,-1.31 -0.86,-1.31 1.84,-2.79 0.99,-0.54 2.05,-1.02 3.16,-1.33 2.57,-0.7 5.62,-0.58 8.08,0.2 4.95,1.58 6.46,6.32 5.56,12.39 -1.33,8.98 -7.52,19.33 -11.8,24.99 -2.55,3.38 -5.68,6.95 -9.11,9.27 -5.19,3.52 -9.03,-0.27 -10.57,-4.8 -2.75,-8.06 0.84,-23.63 4.95,-29.68 -1.65,-2.76 -2.7,-5.46 -2.78,-9.51 -5.85,10.36 -11.52,33.55 -4.29,44.58 1.33,2.03 2.23,2.37 4.49,3.54l2.76 0.05c1.71,-0.4 3.13,-1.05 4.43,-1.92 1.13,-0.75 2.88,-2.34 3.63,-2.64l3.45 -3.96c7.16,-8.5 15.25,-24.18 18.14,-34.77 0.6,-4.31 1.27,-7.6 0.05,-11.95 -2.19,-7.83 -9.36,-10.69 -16.82,-8.5 -4.02,1.18 -5.7,2.9 -8.29,4.98 1.67,1 2.32,2.51 2.81,4.78 0.84,3.88 0.14,5.75 0.31,7.06z"/>
  <path class="fil2" d="M1341.08 164.43c0.35,-0.06 4.12,-1.68 6.13,-2.2 16.78,-4.35 30.68,4.04 36.96,20.11 6.53,16.71 2.6,35.73 -7.2,50.3 -0.37,0.55 -1.51,2.06 -1.68,2.58 0.35,0.28 0.08,0.18 0.45,-0.12l1.17 -1.31c1.54,-1.8 2.95,-3.18 4.62,-5.39 6.04,-7.98 10.83,-16.65 12.42,-27.41 1.7,-11.56 -1.18,-23.78 -8.61,-32.08 -2.36,-2.63 -5.44,-4.81 -6.04,-5.42 -6.39,-3.83 -11.53,-5.95 -19.79,-5.48 -3.64,0.21 -7.21,1.06 -10.36,2.26 -1.5,0.57 -7.98,3.57 -8.05,4.16z"/>
  <path class="fil12" d="M1322.67 184.12c-0.41,0.55 -0.7,0.59 -1.27,1.13 -3.68,3.46 -5.45,5.75 -8.1,10.5 -1.88,3.36 -5.47,10.87 -6.2,14.95l1.25 -2.95c1.24,-3.18 2.43,-5.73 4.33,-8.55 3.76,-5.58 9.39,-9.86 16.41,-6.13 3.84,2.04 6.46,4.71 8.27,8.7 0.7,1.53 1.89,5 1.77,6.91 2.49,-1.94 9.6,-5.15 13.44,-5.99 0.02,-6.87 -3.81,-14.18 -9.13,-18.24 -2.46,-1.87 -6.1,-3.37 -10.08,-3.53 -5.42,-0.21 -7.37,1.64 -10.69,3.2z"/>
  <path class="fil11" d="M1226.91 165.43c-0.43,0.32 -0.38,0.68 -1.51,2.89 -1.33,2.61 -2.1,4.78 -3.61,7.05 -0.19,0.28 -0.27,0.39 -0.4,0.65l-0.31 0.87c0.4,0.34 0.18,0.02 0.14,0.54l-0.73 1.9c-2.3,5.85 -4.36,13.26 -4.99,19.49 -0.61,6.1 -0.11,12.11 3.42,16.98 0.57,0.79 1.04,1.14 1.66,1.81 0.79,0.85 1.29,0.88 2,1.6 1.96,0.82 3.24,1.47 5.75,1.51 1.78,0.03 4.71,-0.4 5.93,-1.24l-2.76 -0.05c-3.12,0.42 -6.12,-2.03 -7.49,-3.4 -17.26,-17.2 8.39,-67.25 34.02,-72.28 8.66,-1.7 11.23,0.45 11.22,9.11 -0.01,7.82 -2.28,12.02 -3.43,17.97 0.96,-0.86 3.45,-9.61 3.75,-10.67 1.08,-3.83 2.11,-7.85 2.48,-12.01 -0.08,-4.99 -4.52,-9.6 -11,-9.34 -7.95,0.31 -14.66,5.97 -19.98,10.43 -2.17,1.83 -4.38,4.37 -6.4,6.46 -2.47,2.55 -5.19,6.65 -7.2,9.15l-0.56 0.56z"/>
  <path class="fil12" d="M1339.05 218.01c-1.06,9.87 -8.18,23.63 -16.77,28.39 -5.84,3.23 -13.3,2.62 -16.04,-2.46 -3.29,-6.08 -2.19,-12.86 -1.94,-19.97 -0.09,0.16 -0.09,0.11 -0.28,0.56 -0.01,0.02 -0.13,0.37 -0.17,0.46l-0.3 6.44c-0.36,8.29 1.98,16.63 7.55,19.48 2.71,0.89 4,1.38 7.3,1.08 10.3,-0.88 19.85,-9.36 25.32,-17.66 3.21,-4.86 6.77,-12.48 7.72,-18.32 -1.86,0.4 -3.6,1.12 -5.72,1.53 -2.25,0.44 -4.31,0.58 -6.67,0.47z"/>
  <path class="fil13" d="M1267.58 255.91l-2.23 1.99c-2.54,2.44 -3.95,5.88 -3.39,9.7 0.42,2.87 1.71,3.95 3.76,5.01 2.41,1.25 4.98,1.18 7.41,0.02 7.1,-3.39 11.35,-11.95 14.42,-21.09 -0.21,-0.19 0.22,-0.13 -0.53,-0.2 -3.82,0.07 -7.34,0.31 -10.97,1.13 -1.58,0.36 -3.08,0.82 -4.53,1.39 -1.59,0.63 -2.6,1.37 -3.95,2.04z"/>
  <path class="fil14" d="M1346.27 4.08c-6.88,0.98 -9.74,6.85 -5.52,12.88 2.55,3.63 8.19,7.8 15.33,6.21 6.07,-1.35 10.13,-6.97 5.46,-12.49 -2.63,-3.11 -8.91,-7.51 -15.26,-6.6z"/>
  <path class="fil14" d="M1223.3 25.53c-4.91,0.69 -12.3,3.31 -12.63,8.01 -0.36,5.24 6.28,8.94 11.74,9.05 15.88,0.33 16.22,-19.21 0.88,-17.07z"/>
  <path class="fil2" d="M1498.89 336.5c0.48,0.53 3.3,2.26 3.93,2.69 1.27,-0.98 15.98,-0.2 18.49,0 5.63,0.46 11.43,1.37 16.76,2.65 10.19,2.45 19.99,6.11 28.22,10.75 -0.43,-0.86 -1.1,-1.57 -1.72,-2.3 -0.41,-0.49 -0.46,-0.63 -0.96,-1.1 -0.38,-0.35 -0.75,-0.52 -0.7,-0.94 -1.08,-1.2 -11.08,-4.98 -13.4,-5.79 -4.8,-1.69 -9.71,-3.15 -14.98,-4.23 -12.12,-2.49 -23.06,-2.93 -35.64,-1.73z"/>
  <path class="fil11" d="M1265.3 251.55c1.69,-0.18 3.14,-0.61 4.28,-1.47 1.4,-1.05 1.59,-1.74 2.5,-3.31l0.32 -1.4c-8.69,0.01 -12.31,-1.57 -19.78,-3.21 -0.57,4.03 0.76,6.08 3.35,7.5 2.21,1.22 6.41,2.1 9.33,1.89z"/>
  <path class="fil15" d="M1272.07 246.77c-0.91,1.57 -1.1,2.26 -2.5,3.31 -1.14,0.86 -2.59,1.29 -4.28,1.47 0.55,1.68 1.51,3.03 2.28,4.36 1.35,-0.67 2.36,-1.4 3.95,-2.04 1.44,-0.57 2.95,-1.03 4.53,-1.39 3.63,-0.82 7.14,-1.07 10.97,-1.13 0.42,-1.82 1.15,-3.5 1.37,-5.6 -2.7,0.29 -5.23,0.59 -7.96,0.75 -2.55,0.15 -5.98,-0.02 -8.36,0.28z"/>
  <path class="fil16" d="M1238.82 199.4c-3.81,0.48 -4.81,0.88 -4.37,6.8 0.13,1.81 0.31,3.2 1.95,3.56 1.59,0.35 3.94,0.27 5.56,0.05 1.98,-0.27 2.95,-0.48 3.51,-2.01 0.7,-1.92 1.52,-7.27 -1.53,-8.21 -1.44,-0.44 -3.58,-0.37 -5.11,-0.18z"/>
  <path class="fil16" d="M1310.78 225.06c-1.66,0.47 -6.41,4.15 -5.05,7.11 0.63,1.36 1.76,2.91 2.69,3.86 0.85,0.86 2.13,2.75 4.02,1.96 1.26,-0.53 2.91,-1.87 3.66,-2.69 1.02,-1.12 2.55,-2.02 1.56,-4.22 -0.87,-1.94 -4.3,-6.75 -6.88,-6.02z"/>
 </g>
</svg>
